<svg width="16" height="16" viewBox="0 0 16 16" fill="none" xmlns="http://www.w3.org/2000/svg">
<path fill-rule="evenodd" clip-rule="evenodd" d="M14 15H13V8H3V15H2C1.44775 15 1 14.5523 1 14V2C1 1.44772 1.44775 1 2 1H3V6H11V1H11.1716C11.4368 1 11.6912 1.10535 11.8787 1.29291L14.7072 4.12131C14.8947 4.30887 15 4.5632 15 4.82843V14C15 14.5523 14.5522 15 14 15ZM14 16H13H3H2C0.895386 16 0 15.1046 0 14V2C0 0.895416 0.895386 0 2 0H3H11H11.1716C11.702 0 12.2107 0.210724 12.5858 0.585785L15.4142 3.41422C15.7893 3.78928 16 4.298 16 4.82843V14C16 15.1046 15.1046 16 14 16ZM12 9V15H4V9H12ZM10 1H4V5H10V1ZM9 2H8V4H9V2ZM11 10V11H5V10H11ZM11 14V13H5V14H11Z" fill="white"/>
</svg>
